<svg id="6b172daf-442d-4c8d-9d28-2c875df816c6" data-name="rui khembo" xmlns="http://www.w3.org/2000/svg" viewBox="0 0 402.75 162.23"><defs><style>.\36 6ffca4b-8c5a-40a1-8b33-9efb18dec6a7{fill:#fff;}</style></defs><title>logo</title><g id="b0fcb01b-ae93-4acc-b8d1-a55be49f71a6" data-name="logo"><path class="66ffca4b-8c5a-40a1-8b33-9efb18dec6a7" d="M149.18,245.09c-13.9-6.84-17.09-15.5-17.32-15.27-.23,0-.23,0-.23-.23v-.46c0-.68.46-1.14,1.37-1.14,1.37,0,4.79,10,17.32,12.54,2.51-11.85,6.61-18,9.57-28.72l1.6-4.79c.91-2.74,1.82-5.7,1.82-7.52-16,9.12-19.83,17.32-20.74,17.32-5.47-4.33-7.07-8.66-7.07-12.08,0-7.07,1.82-7.07,8.21-12.31h.23c8.66-6.15,31.68-17.55,55.16-17.55,8.21,0,41,1.6,41,23.25a30.58,30.58,0,0,1-3,12.31c-11.62,27.35-36.92,41.48-59,41.48-1.14,0-2.51-.23-3.65-.23C187.92,268.33,213.91,280,234.19,280c8,0,13,0,19.15-4.56,5.93,5.93,2.05,18.46-16.64,19.15-35.33,1.14-55.39-21.43-76.13-44.67-1.14,1.14-2.73,7.29-2.73,8.66,0,.23-3,11.62-3,15.27-.91,0-9.35-1.82-9.35-9.35C145.53,258.08,147.58,252.15,149.18,245.09Zm13.09-.62c2.51,1.6,8.43,1.6,12.08,1.6,18.23,0,35.56-9.8,45.81-29.86,3.42-6.61,5.93-13,5.93-17.32,0-8-13.45-11.4-23-11.4-16.64,0-31,7.07-39.66,12.08,2.05,0,12.76,4.79,12.76,11.4,0,3.19.23,2.73-3.42,9.8A215.3,215.3,0,0,0,162.26,244.47Z" transform="translate(-54.62 -174.88)"/><path class="66ffca4b-8c5a-40a1-8b33-9efb18dec6a7" d="M342.5,316.83c0,2.05-.68,5.24-8.66,5.24-6.38,0-19.15-2.28-37.38-18.69a3.33,3.33,0,0,0-2.74-.91c-5.47,0-16.41,3.42-56.53,13.68,0,1.37-70.89,21-108,21-13,0-45.13-1.82-65.19-16.41a20.74,20.74,0,0,1-4.79-4.1,15.92,15.92,0,0,1-4.56-11.4,15.32,15.32,0,0,1,.91-5.47c3.87,3.88,9.35,7.07,16,10,11.62,5.24,29.63,10,57.89,10q12,0,26-1.37c8.21-.68,16.87-1.82,25.76-3.19,15.5-2.51,35.1-5.7,53.56-10.94,3.65-.68,26.67-8,49.92-10.94-7.07-6.61-27.65-35.92-30.61-41.16-9.12,14.59-8.43,21-16,21-2.73,0-7.75-.46-7.75-10.94,0-19.6,16.87-62.22,21.2-71.57.46-.46,3.87-9.12,3.87-13.45,1.14,0,12.76,5,12.76,11.17,0,4.79-28,53.11-28,72.94,18.23-33.28,39.66-48.09,39.43-48.09a5,5,0,0,0,1.14.68q1.37,1,1.37,1.37c-.23,0-12.31,12.31-18.23,22.56,1.14,10,25.37,44.58,34.26,55.29h1.6a136,136,0,0,1,13.9,2.05c8,1.6,16.41,4.33,22.56,8.89A15.65,15.65,0,0,1,342.5,316.83Zm-9.12.9a5.35,5.35,0,0,0,3.65-1.14,6,6,0,0,0,1.14-1.37c-1.14-5.24-8.66-8.43-16-10.26a85.3,85.3,0,0,0-14.59-2.28c3.87,4.79,9.57,8.21,13.9,10.71a57.46,57.46,0,0,0,7.75,3.42A8.94,8.94,0,0,0,333.38,317.73Z" transform="translate(-54.62 -174.88)"/></g><g id="f8a5ed9f-2767-4d96-a9f1-04f48601bb4c" data-name="logotipo"><path class="66ffca4b-8c5a-40a1-8b33-9efb18dec6a7" d="M71.74,238.74a32.34,32.34,0,0,1,6.09-.52c3.39,0,5.58.63,7.11,2.05A6.33,6.33,0,0,1,86.87,245a6.58,6.58,0,0,1-4.63,6.41h0c1.81.68,2.89,2.49,3.45,5.12a43,43,0,0,0,1.81,7H84.37a34.94,34.94,0,0,1-1.57-6.07c-.7-3.5-2-4.82-4.7-4.93H75.24v11h-3.5ZM75.24,250h3.32c3.47,0,5.67-1.9,5.67-4.77,0-3.24-2.35-4.66-5.78-4.7a13.33,13.33,0,0,0-3.21.3Z" transform="translate(-54.62 -174.88)"/><path class="66ffca4b-8c5a-40a1-8b33-9efb18dec6a7" d="M102.74,238.53v14.88c0,5.63,2.5,8,5.87,8,3.74,0,6.13-2.46,6.13-8V238.53h3v14.65c0,7.72-4.06,10.89-9.49,10.89-5.14,0-9-2.95-9-10.74v-14.8Z" transform="translate(-54.62 -174.88)"/><path class="66ffca4b-8c5a-40a1-8b33-9efb18dec6a7" d="M134.24,238.53v25h-3v-25Z" transform="translate(-54.62 -174.88)"/><path class="66ffca4b-8c5a-40a1-8b33-9efb18dec6a7" d="M285.74,238.53h3v12h.11c.66-1,1.33-1.85,2-2.66l7.61-9.34h3.08l-8.41,10.61,9.07,14.39H298.6l-7.65-12.28L288.74,254v9.53h-3Z" transform="translate(-54.62 -174.88)"/><path class="66ffca4b-8c5a-40a1-8b33-9efb18dec6a7" d="M316.74,238.53V249h12v-10.5h3.5v25h-3.5v-12h-12v12h-3.5v-25Z" transform="translate(-54.62 -174.88)"/><path class="66ffca4b-8c5a-40a1-8b33-9efb18dec6a7" d="M358.24,251.53h-10v9h11v3h-14v-25h13.5V241h-10.5v8h10Z" transform="translate(-54.62 -174.88)"/><path class="66ffca4b-8c5a-40a1-8b33-9efb18dec6a7" d="M392,252.44c-.19-3.52-.41-7.76-.37-10.91h-.2c-.85,2.91-1.88,6-3.13,9.44L383.88,263h-2.43l-4-11.84c-1.18-3.5-2.18-6.71-2.88-9.66h-.16c-.08,3.15-.26,7.38-.49,11.17l-.67,10.83h-3.09l1.74-25h4.18l4.26,12.08c1,3.08,1.89,5.82,2.52,8.42H383c.63-2.52,1.52-5.26,2.63-8.42L390,238.53h4.18l1.56,25h-3.16Z" transform="translate(-54.62 -174.88)"/><path class="66ffca4b-8c5a-40a1-8b33-9efb18dec6a7" d="M408.24,238.86a31,31,0,0,1,5.84-.51c3.19,0,5.25.55,6.79,1.8a5.19,5.19,0,0,1,2.06,4.37,5.88,5.88,0,0,1-4.19,5.43V250a6.38,6.38,0,0,1,5.1,6.2,6.67,6.67,0,0,1-2.09,5c-1.73,1.58-4.52,2.31-8.55,2.31a37.3,37.3,0,0,1-5-.29Zm3,10.17h2.95c3.43,0,5.44-1.79,5.44-4.21,0-2.95-2.24-4.1-5.52-4.1a13.92,13.92,0,0,0-2.87.22Zm0,12.08a17.33,17.33,0,0,0,2.72.15c3.36,0,6.45-1.23,6.45-4.88,0-3.43-2.95-4.85-6.49-4.85h-2.68Z" transform="translate(-54.62 -174.88)"/><path class="66ffca4b-8c5a-40a1-8b33-9efb18dec6a7" d="M457.38,250.64c0,8.65-5.26,13.24-11.67,13.24-6.64,0-11.3-5.15-11.3-12.75,0-8,5-13.2,11.67-13.2S457.38,243.18,457.38,250.64Zm-19.5.41c0,5.37,2.91,10.18,8,10.18s8.05-4.73,8.05-10.44c0-5-2.61-10.22-8-10.22S437.88,245.53,437.88,251.05Z" transform="translate(-54.62 -174.88)"/></g></svg>